<?xml version="1.0" encoding="UTF-8" standalone="no"?>
<svg
   xmlns:dc="http://purl.org/dc/elements/1.1/"
   xmlns:cc="http://creativecommons.org/ns#"
   xmlns:rdf="http://www.w3.org/1999/02/22-rdf-syntax-ns#"
   xmlns:svg="http://www.w3.org/2000/svg"
   xmlns="http://www.w3.org/2000/svg"
   xmlns:sodipodi="http://sodipodi.sourceforge.net/DTD/sodipodi-0.dtd"
   xmlns:inkscape="http://www.inkscape.org/namespaces/inkscape"
   version="1.1"
   id="Layer_1"
   x="0px"
   y="0px"
   viewBox="0 0 473.654 473.654"
   style="enable-background:new 0 0 473.654 473.654;"
   xml:space="preserve"
   sodipodi:docname="Zoltan-Logo.svg"
   inkscape:version="1.0.1 (3bc2e813f5, 2020-09-07)"><metadata
   id="metadata47"><rdf:RDF><cc:Work
       rdf:about=""><dc:format>image/svg+xml</dc:format><dc:type
         rdf:resource="http://purl.org/dc/dcmitype/StillImage" /><dc:title></dc:title></cc:Work></rdf:RDF></metadata><defs
   id="defs45" /><sodipodi:namedview
   pagecolor="#ffffff"
   bordercolor="#666666"
   borderopacity="1"
   objecttolerance="10"
   gridtolerance="10"
   guidetolerance="10"
   inkscape:pageopacity="0"
   inkscape:pageshadow="2"
   inkscape:window-width="1848"
   inkscape:window-height="1057"
   id="namedview43"
   showgrid="false"
   inkscape:zoom="0.93950438"
   inkscape:cx="192.51172"
   inkscape:cy="298.21611"
   inkscape:window-x="-8"
   inkscape:window-y="-8"
   inkscape:window-maximized="1"
   inkscape:current-layer="Layer_1" />
<circle
   style="fill:#A2D4DE;"
   cx="236.827"
   cy="236.827"
   r="236.827"
   id="circle2" />
<g
   id="g10"
   transform="translate(4.257564,2.128782)">
	<path
   style="fill:#5b4f3f"
   d="m 90.711014,224.86256 -36.091,20.295 36.091,20.287 c 4.992,2.808 7.49,7.857 7.49,15.142 0,4.63 -1.081,8.683 -3.235,12.154 -2.165,3.482 -4.839,5.217 -8.018,5.217 -1.481,0 -2.962,-0.408 -4.435,-1.238 l -63.947,-35.945 c -6.137,-3.47 -9.2069996,-8.676 -9.2069996,-15.613 0,-6.941 3.0699996,-12.15 9.2069996,-15.62 l 63.947,-35.945 c 1.473,-0.823 2.954,-1.238 4.435,-1.238 3.179,0 5.849,1.739 8.018,5.209 2.154,3.478 3.235,7.535 3.235,12.165 0,7.273 -2.498,12.318 -7.49,15.13 z"
   id="path4" />
	<path
   style="fill:#5b4f3f"
   d="m 360.71651,208.66017 c 0,-4.63 1.081,-8.687 3.235,-12.165 2.161,-3.47 4.835,-5.209 8.018,-5.209 1.481,0 2.958,0.415 4.435,1.238 l 63.947,35.945 c 6.137,3.47 9.207,8.676 9.207,15.62 0,6.933 -3.07,12.142 -9.207,15.613 l -63.947,35.945 c -1.477,0.83 -2.954,1.238 -4.435,1.238 -3.182,0 -5.852,-1.735 -8.018,-5.217 -2.154,-3.47 -3.235,-7.524 -3.235,-12.154 0,-7.285 2.494,-12.333 7.49,-15.142 l 36.087,-20.287 -36.087,-20.295 c -4.996,-2.804 -7.49,-7.849 -7.49,-15.13 z"
   id="path6" />
	<path
   style="fill:#5b4f3f"
   d="m 298.01542,313.70739 c -3.238,7.06 -11.593,10.149 -18.646,6.911 v 0 c -7.057,-3.238 -10.149,-11.589 -6.911,-18.646 l 64.25,-139.886 c 3.235,-7.06 11.581,-10.149 18.638,-6.911 v 0 c 7.064,3.238 10.153,11.593 6.911,18.642 z"
   id="path8" />
</g>
<g
   id="g12">
</g>
<g
   id="g14">
</g>
<g
   id="g16">
</g>
<g
   id="g18">
</g>
<g
   id="g20">
</g>
<g
   id="g22">
</g>
<g
   id="g24">
</g>
<g
   id="g26">
</g>
<g
   id="g28">
</g>
<g
   id="g30">
</g>
<g
   id="g32">
</g>
<g
   id="g34">
</g>
<g
   id="g36">
</g>
<g
   id="g38">
</g>
<g
   id="g40">
</g>
<text
   xml:space="preserve"
   style="font-style:normal;font-variant:normal;font-weight:normal;font-stretch:normal;font-size:538.665px;line-height:1.25;font-family:'Cabin Sketch';-inkscape-font-specification:'Cabin Sketch, Normal';font-variant-ligatures:normal;font-variant-caps:normal;font-variant-numeric:normal;font-variant-east-asian:normal;fill:#5b4f3f;fill-opacity:1;stroke:none;stroke-width:13.4667"
   x="52.153748"
   y="438.5401"
   id="text51"
   transform="scale(1.1373693,0.87922188)"><tspan
     sodipodi:role="line"
     id="tspan49"
     x="52.153748"
     y="438.5401"
     style="font-style:normal;font-variant:normal;font-weight:normal;font-stretch:normal;font-size:538.665px;font-family:'Cabin Sketch';-inkscape-font-specification:'Cabin Sketch, Normal';font-variant-ligatures:normal;font-variant-caps:normal;font-variant-numeric:normal;font-variant-east-asian:normal;fill:#5b4f3f;fill-opacity:1;stroke-width:13.4667">Z</tspan></text><rect
   style="fill:#000000;fill-opacity:0"
   id="rect65"
   width="87.28006"
   height="68.121025"
   x="235.23041"
   y="40.446857" /><rect
   style="fill:#000000;fill-opacity:0"
   id="rect76"
   width="4.2575641"
   height="68.121025"
   x="299.09384"
   y="147.95035" /></svg>
