<svg version="1.1" viewBox="0.0 0.0 276.0 568.0" fill="none" stroke="none" stroke-linecap="square" stroke-miterlimit="10" xmlns:xlink="http://www.w3.org/1999/xlink" xmlns="http://www.w3.org/2000/svg"><clipPath id="p.0"><path d="m0 0l276.0 0l0 568.0l-276.0 0l0 -568.0z" clip-rule="nonzero"/></clipPath><g clip-path="url(#p.0)"><path fill="#000000" fill-opacity="0.0" d="m0 0l276.0 0l0 568.0l-276.0 0z" fill-rule="evenodd"/><path fill="#cfe2f3" d="m16.955381 8.6640415l168.50375 0l9.039551 9.039551l0 45.19667l-177.5433 0z" fill-rule="evenodd"/><path stroke="#000000" stroke-width="1.0" stroke-linejoin="round" stroke-linecap="butt" d="m16.955381 8.6640415l168.50375 0l9.039551 9.039551l0 45.19667l-177.5433 0z" fill-rule="evenodd"/><path fill="#000000" d="m27.392881 44.96204l0 -13.359377l5.046873 0q1.328125 0 2.03125 0.125q0.96875 0.171875 1.640625 0.6406269q0.671875 0.453125 1.078125 1.28125q0.40625 0.828125 0.40625 1.828125q0 1.703125 -1.09375 2.890625q-1.078125 1.171875 -3.921875 1.171875l-3.421873 0l0 5.421875l-1.765625 0zm1.765625 -7.0l3.453123 0q1.71875 0 2.4375 -0.640625q0.71875 -0.640625 0.71875 -1.796875q0 -0.84375 -0.421875 -1.4375q-0.421875 -0.59375 -1.125 -0.78125q-0.4375 -0.125 -1.640625 -0.125l-3.421873 0l0 4.78125zm10.709196 7.0l0 -13.359377l5.921875 0q1.78125 0 2.703125 0.359375q0.9375 0.3593769 1.484375 1.2812519q0.5625 0.90625 0.5625 2.015625q0 1.40625 -0.921875 2.390625q-0.921875 0.96875 -2.84375 1.234375q0.703125 0.34375 1.078125 0.671875q0.765625 0.703125 1.453125 1.765625l2.328125 3.640625l-2.21875 0l-1.765625 -2.78125q-0.78125 -1.203125 -1.28125 -1.828125q-0.5 -0.640625 -0.90625 -0.890625q-0.390625 -0.265625 -0.796875 -0.359375q-0.296875 -0.078125 -0.984375 -0.078125l-2.046875 0l0 5.9375l-1.765625 0zm1.765625 -7.453125l3.796875 0q1.21875 0 1.890625 -0.25q0.6875 -0.265625 1.046875 -0.8125q0.359375 -0.546875 0.359375 -1.1875q0 -0.953125 -0.6875 -1.5625q-0.6875 -0.609375 -2.1875 -0.609375l-4.21875 0l0 4.421875zm11.144821 0.953125q0 -3.328125 1.78125 -5.203125q1.78125 -1.8906269 4.609375 -1.8906269q1.84375 0 3.328125 0.8906269q1.484375 0.875 2.2656288 2.46875q0.78125 1.578125 0.78125 3.578125q0 2.03125 -0.828125 3.640625q-0.8125038 1.59375 -2.3125038 2.421875q-1.5 0.828125 -3.25 0.828125q-1.875 0 -3.359375 -0.90625q-1.484375 -0.921875 -2.25 -2.5q-0.765625 -1.578125 -0.765625 -3.328125zm1.8125 0.015625q0 2.421875 1.296875 3.8125q1.296875 1.390625 3.265625 1.390625q2.0 0 3.28125 -1.40625q1.28125 -1.40625 1.28125 -3.984375q0 -1.625 -0.546875 -2.84375q-0.546875 -1.21875 -1.609375 -1.875q-1.0625 -0.671875 -2.375 -0.671875q-1.890625 0 -3.25 1.296875q-1.34375 1.28125 -1.34375 4.28125zm12.323933 2.6875l1.59375 -0.21875q0.078125 1.53125 0.578125 2.109375q0.515625 0.5625 1.421875 0.5625q0.65625 0 1.140625 -0.296875q0.484375 -0.3125 0.65625 -0.828125q0.1875 -0.53125 0.1875 -1.6875l0 -9.203127l1.765625 0l0 9.109377q0 1.671875 -0.40625 2.59375q-0.40625 0.921875 -1.28125 1.40625q-0.875 0.484375 -2.0625 0.484375q-1.75 0 -2.6875 -1.015625q-0.9375 -1.015625 -0.90625 -3.015625zm10.265625 3.796875l0 -13.359377l9.65625 0l0 1.5781269l-7.875 0l0 4.09375l7.375 0l0 1.5625l-7.375 0l0 4.546875l8.1875 0l0 1.578125l-9.96875 0zm21.943573 -4.6875l1.765625 0.453125q-0.5625 2.171875 -2.0 3.328125q-1.4375 1.140625 -3.53125 1.140625q-2.15625 0 -3.515625 -0.875q-1.34375 -0.890625 -2.0625 -2.546875q-0.703125 -1.671875 -0.703125 -3.59375q0 -2.078125 0.796875 -3.625q0.796875 -1.5625 2.265625 -2.359375q1.484375 -0.8125019 3.25 -0.8125019q2.0 0 3.359375 1.0156269q1.375 1.015625 1.90625 2.875l-1.734375 0.40625q-0.46875 -1.453125 -1.359375 -2.109375q-0.875 -0.671875 -2.203125 -0.671875q-1.546875 0 -2.578125 0.734375q-1.03125 0.734375 -1.453125 1.984375q-0.421875 1.234375 -0.421875 2.5625q0 1.703125 0.5 2.96875q0.5 1.265625 1.546875 1.90625q1.046875 0.625 2.265625 0.625q1.484375 0 2.515625 -0.859375q1.03125 -0.859375 1.390625 -2.546875zm7.347946 4.6875l0 -11.78125l-4.40625 0l0 -1.5781269l10.578125 0l0 1.5781269l-4.40625 0l0 11.78125l-1.765625 0zm6.270981 3.703125l0 -1.1875l10.859375 0l0 1.1875l-10.859375 0zm12.078842 -3.703125l0 -13.359377l1.8125 0l7.015625 10.484377l0 -10.484377l1.6875 0l0 13.359377l-1.8125 0l-7.015625 -10.5l0 10.5l-1.6875 0zm12.019821 0l5.125 -13.359377l1.90625 0l5.46875 13.359377l-2.015625 0l-1.546875 -4.046875l-5.59375 0l-1.46875 4.046875l-1.875 0zm3.859375 -5.484375l4.53125 0l-1.40625 -3.703125q-0.625 -1.6875 -0.9375 -2.765625q-0.265625 1.28125 -0.71875 2.546875l-1.46875 3.921875zm10.006073 5.484375l0 -13.359377l2.65625 0l3.15625 9.453127q0.4375 1.328125 0.640625 1.984375q0.234375 -0.734375 0.703125 -2.140625l3.203125 -9.296877l2.375 0l0 13.359377l-1.703125 0l0 -11.171875l-3.875 11.171875l-1.59375 0l-3.859375 -11.375l0 11.375l-1.703125 0zm15.618927 0l0 -13.359377l9.65625 0l0 1.5781269l-7.875 0l0 4.09375l7.375 0l0 1.5625l-7.375 0l0 4.546875l8.1875 0l0 1.578125l-9.96875 0z" fill-rule="nonzero"/><path fill="#000000" fill-opacity="0.0" d="m105.727036 62.90026l0 43.149605l22.20472 0" fill-rule="evenodd"/><path stroke="#000000" stroke-width="1.0" stroke-linejoin="round" stroke-linecap="butt" d="m105.727036 62.90026l0 43.149605l22.20472 0" fill-rule="evenodd"/><path fill="#cfe2f3" d="m127.926506 153.29152l0 0c0 -4.992401 4.047142 -9.039551 9.039558 -9.039551l68.22011 0c2.3974304 0 4.696686 0.9523773 6.391922 2.6476288c1.6952515 1.6952362 2.6476288 3.9944916 2.6476288 6.391922l0 36.15712c0 4.992401 -4.0471497 9.039551 -9.039551 9.039551l-68.22011 0c-4.9924164 0 -9.039558 -4.0471497 -9.039558 -9.039551z" fill-rule="evenodd"/><path stroke="#000000" stroke-width="1.0" stroke-linejoin="round" stroke-linecap="butt" d="m127.926506 153.29152l0 0c0 -4.992401 4.047142 -9.039551 9.039558 -9.039551l68.22011 0c2.3974304 0 4.696686 0.9523773 6.391922 2.6476288c1.6952515 1.6952362 2.6476288 3.9944916 2.6476288 6.391922l0 36.15712c0 4.992401 -4.0471497 9.039551 -9.039551 9.039551l-68.22011 0c-4.9924164 0 -9.039558 -4.0471497 -9.039558 -9.039551z" fill-rule="evenodd"/><path fill="#000000" d="m141.74597 178.29007l0 -1.875l1.875 0l0 1.875l-1.875 0zm6.234375 0l0 -1.875l1.859375 0l0 1.875l-1.859375 0zm6.203125 0l0 -1.875l1.875 0l0 1.875l-1.875 0zm5.28125 3.703125l0 -13.375l1.484375 0l0 1.25q0.53125 -0.734375 1.1875 -1.09375q0.671875 -0.375 1.625 -0.375q1.234375 0 2.171875 0.640625q0.953125 0.625 1.4375 1.796875q0.484375 1.15625 0.484375 2.546875q0 1.484375 -0.53125 2.671875q-0.53125 1.1875 -1.546875 1.828125q-1.015625 0.625 -2.140625 0.625q-0.8125 0 -1.46875 -0.34375q-0.65625 -0.34375 -1.0625 -0.875l0 4.703125l-1.640625 0zm1.484375 -8.484375q0 1.859375 0.75 2.765625q0.765625 0.890625 1.828125 0.890625q1.09375 0 1.875 -0.921875q0.78125 -0.9375 0.78125 -2.875q0 -1.84375 -0.765625 -2.765625q-0.75 -0.921875 -1.8125 -0.921875q-1.046875 0 -1.859375 0.984375q-0.796875 0.96875 -0.796875 2.84375zm8.813217 8.5l-0.1875 -1.53125q0.546875 0.140625 0.9375 0.140625q0.546875 0 0.875 -0.1875q0.328125 -0.171875 0.546875 -0.5q0.15625 -0.25 0.5 -1.21875q0.046875 -0.140625 0.140625 -0.40625l-3.671875 -9.6875l1.765625 0l2.015625 5.59375q0.390625 1.078125 0.703125 2.25q0.28125 -1.125 0.671875 -2.203125l2.078125 -5.640625l1.640625 0l-3.6875 9.828125q-0.59375 1.609375 -0.921875 2.203125q-0.4375 0.8125 -1.0 1.1875q-0.5625 0.375 -1.34375 0.375q-0.484375 0 -1.0625 -0.203125z" fill-rule="nonzero"/><path fill="#000000" fill-opacity="0.0" d="m105.727036 62.90026l0 108.472435l22.20472 0" fill-rule="evenodd"/><path stroke="#000000" stroke-width="1.0" stroke-linejoin="round" stroke-linecap="butt" d="m105.727036 62.90026l0 108.472435l22.20472 0" fill-rule="evenodd"/><path fill="#cfe2f3" d="m16.955381 209.56693l65.763596 0l9.039551 9.039551l0 45.196686l-74.80315 0z" fill-rule="evenodd"/><path stroke="#000000" stroke-width="1.0" stroke-linejoin="round" stroke-linecap="butt" d="m16.955381 209.56693l65.763596 0l9.039551 9.039551l0 45.196686l-74.80315 0z" fill-rule="evenodd"/><path fill="#ffff00" d="m25.955381 227.94493l50.830994 0l0 22.399994l-50.830994 0l0 -22.399994z" fill-rule="nonzero"/><path fill="#000000" fill-opacity="0.0" d="m25.955381 228.97592l50.830994 0l0 21.452866l-50.830994 0l0 -21.452866z" fill-rule="nonzero"/><path fill="#000000" d="m27.189756 249.56805l0 -13.375l1.484375 0l0 1.25q0.53125 -0.734375 1.1875 -1.09375q0.671875 -0.375 1.625 -0.375q1.2343731 0 2.171873 0.640625q0.953125 0.625 1.4375 1.796875q0.484375 1.15625 0.484375 2.546875q0 1.484375 -0.53125 2.671875q-0.53125 1.1875 -1.546875 1.828125q-1.015625 0.625 -2.140623 0.625q-0.8125 0 -1.46875 -0.34375q-0.65625 -0.34375 -1.0625 -0.875l0 4.703125l-1.640625 0zm1.484375 -8.484375q0 1.859375 0.75 2.765625q0.765625 0.890625 1.828125 0.890625q1.0937481 0 1.8749981 -0.921875q0.78125 -0.9375 0.78125 -2.875q0 -1.84375 -0.765625 -2.765625q-0.75 -0.921875 -1.8124981 -0.921875q-1.046875 0 -1.859375 0.984375q-0.796875 0.96875 -0.796875 2.84375zm15.20384 3.59375q-0.921875 0.765625 -1.765625 1.09375q-0.828125 0.3125 -1.796875 0.3125q-1.59375 0 -2.453125 -0.78125q-0.859375 -0.78125 -0.859375 -1.984375q0 -0.71875 0.328125 -1.296875q0.328125 -0.59375 0.84375 -0.9375q0.53125 -0.359375 1.1875 -0.546875q0.46875 -0.125 1.453125 -0.25q1.984375 -0.234375 2.921875 -0.5625q0.015625 -0.34375 0.015625 -0.421875q0 -1.0 -0.46875 -1.421875q-0.625 -0.546875 -1.875 -0.546875q-1.15625 0 -1.703125 0.40625q-0.546875 0.40625 -0.8125 1.421875l-1.609375 -0.21875q0.21875 -1.015625 0.71875 -1.640625q0.5 -0.640625 1.453125 -0.984375q0.953125 -0.34375 2.1875 -0.34375q1.25 0 2.015625 0.296875q0.78125 0.28125 1.140625 0.734375q0.375 0.4375 0.515625 1.109375q0.078125 0.421875 0.078125 1.515625l0 2.1875q0 2.28125 0.109375 2.890625q0.109375 0.59375 0.40625 1.15625l-1.703125 0q-0.265625 -0.515625 -0.328125 -1.1875zm-0.140625 -3.671875q-0.890625 0.375 -2.671875 0.625q-1.015625 0.140625 -1.4375 0.328125q-0.421875 0.1875 -0.65625 0.53125q-0.21875 0.34375 -0.21875 0.78125q0 0.65625 0.5 1.09375q0.5 0.4375 1.453125 0.4375q0.9375 0 1.671875 -0.40625q0.75 -0.421875 1.09375 -1.140625q0.265625 -0.5625 0.265625 -1.640625l0 -0.609375zm3.8913422 5.65625l1.59375 0.234375q0.109375 0.75 0.5625 1.078125q0.609375 0.453125 1.671875 0.453125q1.140625 0 1.75 -0.453125q0.625 -0.453125 0.84375 -1.265625q0.125 -0.5 0.109375 -2.109375q-1.0625 1.265625 -2.671875 1.265625q-2.0 0 -3.09375 -1.4375q-1.09375 -1.4375 -1.09375 -3.453125q0 -1.390625 0.5 -2.5625q0.515625 -1.171875 1.453125 -1.796875q0.953125 -0.640625 2.25 -0.640625q1.703125 0 2.8125 1.375l0 -1.15625l1.515625 0l0 8.359375q0 2.265625 -0.46875 3.203125q-0.453125 0.9375 -1.453125 1.484375q-0.984375 0.546875 -2.453125 0.546875q-1.71875 0 -2.796875 -0.78125q-1.0625 -0.765625 -1.03125 -2.34375zm1.359375 -5.8125q0 1.90625 0.75 2.78125q0.765625 0.875 1.90625 0.875q1.125 0 1.890625 -0.859375q0.765625 -0.875 0.765625 -2.734375q0 -1.78125 -0.796875 -2.671875q-0.78125 -0.90625 -1.890625 -0.90625q-1.09375 0 -1.859375 0.890625q-0.765625 0.875 -0.765625 2.625zm15.953846 1.90625l1.6875 0.203125q-0.40625 1.484375 -1.484375 2.3125q-1.078125 0.8125 -2.7656288 0.8125q-2.125 0 -3.375 -1.296875q-1.234375 -1.3125 -1.234375 -3.671875q0 -2.453125 1.25 -3.796875q1.265625 -1.34375 3.265625 -1.34375q1.9375038 0 3.1562538 1.328125q1.234375 1.3125 1.234375 3.703125q0 0.15625 0 0.4375l-7.218754 0q0.09375 1.59375 0.90625 2.453125q0.8125 0.84375 2.015625 0.84375q0.90625 0 1.546875 -0.46875q0.6406288 -0.484375 1.0156288 -1.515625zm-5.390629 -2.65625l5.406254 0q-0.109375 -1.21875 -0.625 -1.828125q-0.7812538 -0.953125 -2.0312538 -0.953125q-1.125 0 -1.90625 0.765625q-0.765625 0.75 -0.84375 2.015625zm8.485096 2.875l1.625 -0.25q0.125 0.96875 0.75 1.5q0.625 0.515625 1.75 0.515625q1.125 0 1.671875 -0.453125q0.546875 -0.46875 0.546875 -1.09375q0 -0.546875 -0.484375 -0.875q-0.328125 -0.21875 -1.671875 -0.546875q-1.8125 -0.46875 -2.515625 -0.796875q-0.6875 -0.328125 -1.046875 -0.90625q-0.359375 -0.59375 -0.359375 -1.3125q0 -0.640625 0.296875 -1.1875q0.296875 -0.5625 0.8125 -0.921875q0.375 -0.28125 1.03125 -0.46875q0.671875 -0.203125 1.421875 -0.203125q1.140625 0 2.0 0.328125q0.859375 0.328125 1.265625 0.890625q0.421875 0.5625 0.578125 1.5l-1.609375 0.21875q-0.109375 -0.75 -0.640625 -1.171875q-0.515625 -0.421875 -1.46875 -0.421875q-1.140625 0 -1.625 0.375q-0.46875 0.375 -0.46875 0.875q0 0.3125 0.1875 0.578125q0.203125 0.265625 0.640625 0.4375q0.234375 0.09375 1.4375 0.421875q1.75 0.453125 2.4375 0.75q0.6875 0.296875 1.078125 0.859375q0.390625 0.5625 0.390625 1.40625q0 0.828125 -0.484375 1.546875q-0.46875 0.71875 -1.375 1.125q-0.90625 0.390625 -2.046875 0.390625q-1.875 0 -2.875 -0.78125q-0.984375 -0.78125 -1.25 -2.328125z" fill-rule="nonzero"/><path fill="#010000" fill-opacity="0.0" d="m76.78638 228.97592l0 0l0 21.452866l0 0l0 -21.452866z" fill-rule="nonzero"/><path fill="#cfe2f3" d="m71.215225 288.87946l0 0c0 -4.992401 4.047142 -9.039551 9.039551 -9.039551l68.22011 0c2.3974457 0 4.696686 0.95236206 6.391922 2.6476135c1.6952515 1.6952515 2.6476288 3.9944763 2.6476288 6.3919373l0 36.157104c0 4.992401 -4.0471497 9.039551 -9.039551 9.039551l-68.22011 0c-4.9924088 0 -9.039551 -4.0471497 -9.039551 -9.039551z" fill-rule="evenodd"/><path stroke="#000000" stroke-width="1.0" stroke-linejoin="round" stroke-linecap="butt" d="m71.215225 288.87946l0 0c0 -4.992401 4.047142 -9.039551 9.039551 -9.039551l68.22011 0c2.3974457 0 4.696686 0.95236206 6.391922 2.6476135c1.6952515 1.6952515 2.6476288 3.9944763 2.6476288 6.3919373l0 36.157104c0 4.992401 -4.0471497 9.039551 -9.039551 9.039551l-68.22011 0c-4.9924088 0 -9.039551 -4.0471497 -9.039551 -9.039551z" fill-rule="evenodd"/><path fill="#ffff00" d="m82.862816 295.958l54.948494 0l0 22.399994l-54.948494 0l0 -22.399994z" fill-rule="nonzero"/><path fill="#000000" fill-opacity="0.0" d="m82.862816 296.98898l54.948494 0l0 21.45288l-54.948494 0l0 -21.45288z" fill-rule="nonzero"/><path fill="#000000" d="m90.425316 313.878l0 -1.421875q-1.125 1.640625 -3.0625 1.640625q-0.859375 0 -1.609375 -0.328125q-0.734375 -0.328125 -1.09375 -0.828125q-0.359375 -0.5 -0.5 -1.21875q-0.109375 -0.46875 -0.109375 -1.53125l0 -5.984375l1.640625 0l0 5.359375q0 1.28125 0.109375 1.734375q0.15625 0.640625 0.65625 1.015625q0.5 0.375 1.234375 0.375q0.734375 0 1.375 -0.375q0.65625 -0.390625 0.921875 -1.03125q0.265625 -0.65625 0.265625 -1.890625l0 -5.1875l1.640625 0l0 9.671875l-1.46875 0zm4.031967 0l0 -9.671875l1.46875 0l0 1.46875q0.5625 -1.03125 1.03125 -1.359375q0.484375 -0.328125 1.0625 -0.328125q0.828125 0 1.6875 0.53125l-0.5625 1.515625q-0.609375 -0.359375 -1.203125 -0.359375q-0.546875 0 -0.96875 0.328125q-0.421875 0.328125 -0.609375 0.890625q-0.28125 0.875 -0.28125 1.921875l0 5.0625l-1.625 0zm6.181427 0l0 -13.359375l1.640625 0l0 13.359375l-1.640625 0zm3.5354462 -2.890625l1.625 -0.25q0.125 0.96875 0.75 1.5q0.625 0.515625 1.75 0.515625q1.125 0 1.671875 -0.453125q0.546875 -0.46875 0.546875 -1.09375q0 -0.546875 -0.484375 -0.875q-0.328125 -0.21875 -1.671875 -0.546875q-1.8125 -0.46875 -2.515625 -0.796875q-0.6875 -0.328125 -1.046875 -0.90625q-0.359375 -0.59375 -0.359375 -1.3125q0 -0.640625 0.296875 -1.1875q0.296875 -0.5625 0.8125 -0.921875q0.375 -0.28125 1.03125 -0.46875q0.671875 -0.203125 1.421875 -0.203125q1.140625 0 2.0 0.328125q0.859375 0.328125 1.265625 0.890625q0.421875 0.5625 0.578125 1.5l-1.609375 0.21875q-0.109375 -0.75 -0.640625 -1.171875q-0.515625 -0.421875 -1.46875 -0.421875q-1.140625 0 -1.625 0.375q-0.46875 0.375 -0.46875 0.875q0 0.3125 0.1875 0.578125q0.203125 0.265625 0.640625 0.4375q0.234375 0.09375 1.4375 0.421875q1.75 0.453125 2.4375 0.75q0.6875 0.296875 1.078125 0.859375q0.390625 0.5625 0.390625 1.40625q0 0.828125 -0.484375 1.546875q-0.46875 0.71875 -1.375 1.125q-0.90625 0.390625 -2.046875 0.390625q-1.875 0 -2.875 -0.78125q-0.984375 -0.78125 -1.25 -2.328125zm10.4375 2.890625l0 -1.875l1.875 0l0 1.875l-1.875 0zm4.730179 3.703125l0 -13.375l1.484375 0l0 1.25q0.53125 -0.734375 1.1875 -1.09375q0.671875 -0.375 1.625 -0.375q1.234375 0 2.171875 0.640625q0.953125 0.625 1.4375 1.796875q0.484375 1.15625 0.484375 2.546875q0 1.484375 -0.53125 2.671875q-0.53125 1.1875 -1.546875 1.828125q-1.015625 0.625 -2.140625 0.625q-0.8125 0 -1.46875 -0.34375q-0.65625 -0.34375 -1.0625 -0.875l0 4.703125l-1.640625 0zm1.484375 -8.484375q0 1.859375 0.75 2.765625q0.765625 0.890625 1.828125 0.890625q1.09375 0 1.875 -0.921875q0.78125 -0.9375 0.78125 -2.875q0 -1.84375 -0.765625 -2.765625q-0.75 -0.921875 -1.8125 -0.921875q-1.046875 0 -1.859375 0.984375q-0.796875 0.96875 -0.796875 2.84375zm8.813225 8.5l-0.1875 -1.53125q0.546875 0.140625 0.9375 0.140625q0.546875 0 0.875 -0.1875q0.328125 -0.171875 0.546875 -0.5q0.15625 -0.25 0.5 -1.21875q0.046875 -0.140625 0.140625 -0.40625l-3.671875 -9.6875l1.765625 0l2.015625 5.59375q0.390625 1.078125 0.703125 2.25q0.28125 -1.125 0.671875 -2.203125l2.078125 -5.640625l1.640625 0l-3.6875 9.828125q-0.59375 1.609375 -0.921875 2.203125q-0.4375 0.8125 -1.0 1.1875q-0.5625 0.375 -1.34375 0.375q-0.484375 0 -1.0625 -0.203125z" fill-rule="nonzero"/><path fill="#000000" fill-opacity="0.0" d="m137.81131 296.98898l0 0l0 21.45288l0 0l0 -21.45288z" fill-rule="nonzero"/><path fill="#000000" fill-opacity="0.0" d="m54.356956 263.80316l0 43.149597l16.850395 0" fill-rule="evenodd"/><path stroke="#000000" stroke-width="1.0" stroke-linejoin="round" stroke-linecap="butt" d="m54.356956 263.80316l0 43.149597l16.850395 0" fill-rule="evenodd"/><path fill="#cfe2f3" d="m71.215225 354.1944l0 0c0 -4.992401 4.047142 -9.039551 9.039551 -9.039551l86.29884 0c2.3974457 0 4.696686 0.9523926 6.3919373 2.647644c1.6952362 1.695221 2.6476135 3.9944763 2.6476135 6.3919067l0 36.157135c0 4.992401 -4.0471344 9.039551 -9.039551 9.039551l-86.29884 0c-4.9924088 0 -9.039551 -4.0471497 -9.039551 -9.039551z" fill-rule="evenodd"/><path stroke="#000000" stroke-width="1.0" stroke-linejoin="round" stroke-linecap="butt" d="m71.215225 354.1944l0 0c0 -4.992401 4.047142 -9.039551 9.039551 -9.039551l86.29884 0c2.3974457 0 4.696686 0.9523926 6.3919373 2.647644c1.6952362 1.695221 2.6476135 3.9944763 2.6476135 6.3919067l0 36.157135c0 4.992401 -4.0471344 9.039551 -9.039551 9.039551l-86.29884 0c-4.9924088 0 -9.039551 -4.0471497 -9.039551 -9.039551z" fill-rule="evenodd"/><path fill="#ffff00" d="m82.862816 361.27298l71.53689 0l0 22.399994l-71.53689 0l0 -22.399994z" fill-rule="nonzero"/><path fill="#000000" fill-opacity="0.0" d="m82.862816 362.30396l51.833046 0l0 21.45288l-51.833046 0l0 -21.45288z" fill-rule="nonzero"/><path fill="#000000" d="m86.78469 379.19296l-3.6875 -9.671875l1.734375 0l2.078125 5.796875q0.328125 0.9375 0.625 1.9375q0.203125 -0.765625 0.609375 -1.828125l2.140625 -5.90625l1.6875 0l-3.65625 9.671875l-1.53125 0zm6.640625 -11.46875l0 -1.890625l1.640625 0l0 1.890625l-1.640625 0zm0 11.46875l0 -9.671875l1.640625 0l0 9.671875l-1.640625 0zm10.769821 -3.109375l1.6875 0.203125q-0.40625 1.484375 -1.484375 2.3125q-1.078125 0.8125 -2.765625 0.8125q-2.125 0 -3.375 -1.296875q-1.234375 -1.3125 -1.234375 -3.671875q0 -2.453125 1.25 -3.796875q1.265625 -1.34375 3.265625 -1.34375q1.9375 0 3.15625 1.328125q1.234375 1.3125 1.234375 3.703125q0 0.15625 0 0.4375l-7.21875 0q0.09375 1.59375 0.90625 2.453125q0.8125 0.84375 2.015625 0.84375q0.90625 0 1.546875 -0.46875q0.640625 -0.484375 1.015625 -1.515625zm-5.390625 -2.65625l5.40625 0q-0.109375 -1.21875 -0.625 -1.828125q-0.78125 -0.953125 -2.03125 -0.953125q-1.125 0 -1.90625 0.765625q-0.765625 0.75 -0.84375 2.015625zm10.922592 5.765625l-2.96875 -9.671875l1.703125 0l1.53125 5.578125l0.578125 2.078125q0.046875 -0.15625 0.5 -2.0l1.546875 -5.65625l1.6875 0l1.4375 5.609375l0.484375 1.84375l0.5625 -1.859375l1.65625 -5.59375l1.59375 0l-3.03125 9.671875l-1.703125 0l-1.53125 -5.796875l-0.375 -1.640625l-1.953125 7.4375l-1.71875 0zm11.035446 -2.890625l1.625 -0.25q0.125 0.96875 0.75 1.5q0.625 0.515625 1.75 0.515625q1.125 0 1.671875 -0.453125q0.546875 -0.46875 0.546875 -1.09375q0 -0.546875 -0.484375 -0.875q-0.328125 -0.21875 -1.671875 -0.546875q-1.8125 -0.46875 -2.515625 -0.796875q-0.6875 -0.328125 -1.046875 -0.90625q-0.359375 -0.59375 -0.359375 -1.3125q0 -0.640625 0.296875 -1.1875q0.296875 -0.5625 0.8125 -0.921875q0.375 -0.28125 1.03125 -0.46875q0.671875 -0.203125 1.421875 -0.203125q1.140625 0 2.0 0.328125q0.859375 0.328125 1.265625 0.890625q0.42188263 0.5625 0.5781326 1.5l-1.6093826 0.21875q-0.109375 -0.75 -0.640625 -1.171875q-0.515625 -0.421875 -1.46875 -0.421875q-1.140625 0 -1.625 0.375q-0.46875 0.375 -0.46875 0.875q0 0.3125 0.1875 0.578125q0.203125 0.265625 0.640625 0.4375q0.234375 0.09375 1.4375 0.421875q1.75 0.453125 2.4375 0.75q0.6875076 0.296875 1.0781326 0.859375q0.390625 0.5625 0.390625 1.40625q0 0.828125 -0.484375 1.546875q-0.46875763 0.71875 -1.3750076 1.125q-0.90625 0.390625 -2.046875 0.390625q-1.875 0 -2.875 -0.78125q-0.984375 -0.78125 -1.25 -2.328125zm10.437508 2.890625l0 -1.875l1.875 0l0 1.875l-1.875 0z" fill-rule="nonzero"/><path fill="#010000" fill-opacity="0.0" d="m134.69586 362.30396l19.703842 0l0 21.45288l-19.703842 0l0 -21.45288z" fill-rule="nonzero"/><path fill="#000000" d="m135.93024 382.8961l0 -13.375l1.484375 0l0 1.25q0.53125 -0.734375 1.1875 -1.09375q0.671875 -0.375 1.625 -0.375q1.234375 0 2.171875 0.640625q0.953125 0.625 1.4375 1.796875q0.484375 1.15625 0.484375 2.546875q0 1.484375 -0.53125 2.671875q-0.53125 1.1875 -1.546875 1.828125q-1.015625 0.625 -2.140625 0.625q-0.8125 0 -1.46875 -0.34375q-0.65625 -0.34375 -1.0625 -0.875l0 4.703125l-1.640625 0zm1.484375 -8.484375q0 1.859375 0.75 2.765625q0.765625 0.890625 1.828125 0.890625q1.09375 0 1.875 -0.921875q0.78125 -0.9375 0.78125 -2.875q0 -1.84375 -0.765625 -2.765625q-0.75 -0.921875 -1.8125 -0.921875q-1.046875 0 -1.859375 0.984375q-0.796875 0.96875 -0.796875 2.84375zm8.813217 8.5l-0.1875 -1.53125q0.546875 0.140625 0.9375 0.140625q0.546875 0 0.875 -0.1875q0.328125 -0.171875 0.546875 -0.5q0.15625 -0.25 0.5 -1.21875q0.046875 -0.140625 0.140625 -0.40625l-3.671875 -9.6875l1.765625 0l2.015625 5.59375q0.390625 1.078125 0.703125 2.25q0.28125 -1.125 0.671875 -2.203125l2.078125 -5.640625l1.640625 0l-3.6875 9.828125q-0.59375 1.609375 -0.921875 2.203125q-0.4375 0.8125 -1.0 1.1875q-0.5625 0.375 -1.34375 0.375q-0.484375 0 -1.0625 -0.203125z" fill-rule="nonzero"/><path fill="#010000" fill-opacity="0.0" d="m154.3997 362.30396l0 0l0 21.45288l0 0l0 -21.45288z" fill-rule="nonzero"/><path fill="#000000" fill-opacity="0.0" d="m54.356956 263.80316l0 108.47244l16.850395 0" fill-rule="evenodd"/><path stroke="#000000" stroke-width="1.0" stroke-linejoin="round" stroke-linecap="butt" d="m54.356956 263.80316l0 108.47244l16.850395 0" fill-rule="evenodd"/><path fill="#cfe2f3" d="m71.215225 419.50937l0 0c0 -4.992401 4.047142 -9.039551 9.039551 -9.039551l68.22011 0c2.3974457 0 4.696686 0.95236206 6.391922 2.6476135c1.6952515 1.6952515 2.6476288 3.9945068 2.6476288 6.3919373l0 36.157104c0 4.9924316 -4.0471497 9.039551 -9.039551 9.039551l-68.22011 0c-4.9924088 0 -9.039551 -4.047119 -9.039551 -9.039551z" fill-rule="evenodd"/><path stroke="#000000" stroke-width="1.0" stroke-linejoin="round" stroke-linecap="butt" d="m71.215225 419.50937l0 0c0 -4.992401 4.047142 -9.039551 9.039551 -9.039551l68.22011 0c2.3974457 0 4.696686 0.95236206 6.391922 2.6476135c1.6952515 1.6952515 2.6476288 3.9945068 2.6476288 6.3919373l0 36.157104c0 4.9924316 -4.0471497 9.039551 -9.039551 9.039551l-68.22011 0c-4.9924088 0 -9.039551 -4.047119 -9.039551 -9.039551z" fill-rule="evenodd"/><path fill="#000000" d="m85.03469 444.50793l0 -1.875l1.875 0l0 1.875l-1.875 0zm6.234375 0l0 -1.875l1.859375 0l0 1.875l-1.859375 0zm6.203125 0l0 -1.875l1.875 0l0 1.875l-1.875 0zm5.28125 3.703125l0 -13.375l1.484375 0l0 1.25q0.53125 -0.734375 1.1875 -1.09375q0.671875 -0.375 1.625 -0.375q1.234375 0 2.171875 0.640625q0.953125 0.625 1.4375 1.796875q0.484375 1.15625 0.484375 2.546875q0 1.484375 -0.53125 2.671875q-0.53125 1.1875 -1.546875 1.828125q-1.015625 0.625 -2.140625 0.625q-0.8125 0 -1.46875 -0.34375q-0.65625 -0.34375 -1.0625 -0.875l0 4.703125l-1.640625 0zm1.484375 -8.484375q0 1.859375 0.75 2.765625q0.765625 0.890625 1.828125 0.890625q1.09375 0 1.875 -0.921875q0.78125 -0.9375 0.78125 -2.875q0 -1.84375 -0.765625 -2.765625q-0.75 -0.921875 -1.8125 -0.921875q-1.046875 0 -1.859375 0.984375q-0.796875 0.96875 -0.796875 2.84375zm8.813217 8.5l-0.1875 -1.53125q0.546875 0.140625 0.9375 0.140625q0.546875 0 0.875 -0.1875q0.328125 -0.171875 0.546875 -0.5q0.15625 -0.25 0.5 -1.21875q0.046875 -0.140625 0.140625 -0.40625l-3.671875 -9.6875l1.765625 0l2.015625 5.59375q0.390625 1.078125 0.703125 2.25q0.28125 -1.125 0.671875 -2.203125l2.078125 -5.640625l1.640625 0l-3.6875 9.828125q-0.59375 1.609375 -0.921875 2.203125q-0.4375 0.8125 -1.0 1.1875q-0.5625 0.375 -1.34375 0.375q-0.484375 0 -1.0625 -0.203125z" fill-rule="nonzero"/><path fill="#000000" fill-opacity="0.0" d="m54.356956 263.80316l0 173.79526l16.850395 0" fill-rule="evenodd"/><path stroke="#000000" stroke-width="1.0" stroke-linejoin="round" stroke-linecap="butt" d="m54.356956 263.80316l0 173.79526l16.850395 0" fill-rule="evenodd"/><path fill="#ff9900" d="m172.14174 304.8609l23.566925 -26.60614l0 11.783447l0 0c37.468918 -9.82251 65.219345 -41.89679 69.98363 -80.88794c5.8314514 47.724762 -24.12207 92.43222 -69.98363 104.454865l0 11.783478z" fill-rule="evenodd"/><path fill="#cb7a00" d="m266.40945 220.93373c0 -52.859528 -42.205093 -95.71063 -94.267715 -95.71063l0 -23.566933l0 0c25.001343 0 48.978714 10.083771 66.65733 28.032997c17.67862 17.949219 27.610382 42.293594 27.610382 67.67763z" fill-rule="evenodd"/><path fill="#000000" fill-opacity="0.0" d="m266.40945 220.93373c0 -52.859528 -42.205093 -95.71063 -94.267715 -95.71063l0 -23.566933l0 0c25.001343 0 48.978714 10.083771 66.65733 28.032997c17.67862 17.949219 27.610382 42.293594 27.610382 67.67763l0 23.56694c0 43.643875 -29.079865 81.76045 -70.70079 92.6714l0 11.783478l-23.566925 -20.52771l23.566925 -26.60614l0 11.783447l0 0c37.468918 -9.82251 65.219345 -41.89679 69.98363 -80.88794" fill-rule="evenodd"/><path stroke="#000000" stroke-width="1.0" stroke-linejoin="round" stroke-linecap="butt" d="m266.40945 220.93373c0 -52.859528 -42.205093 -95.71063 -94.267715 -95.71063l0 -23.566933l0 0c25.001343 0 48.978714 10.083771 66.65733 28.032997c17.67862 17.949219 27.610382 42.293594 27.610382 67.67763l0 23.56694c0 43.643875 -29.079865 81.76045 -70.70079 92.6714l0 11.783478l-23.566925 -20.52771l23.566925 -26.60614l0 11.783447l0 0c37.468918 -9.82251 65.219345 -41.89679 69.98363 -80.88794" fill-rule="evenodd"/><path fill="#cfe2f3" d="m127.926506 87.97656l0 0c0 -4.9924088 4.047142 -9.039558 9.039558 -9.039558l68.22011 0c2.3974304 0 4.696686 0.95238495 6.391922 2.6476288c1.6952515 1.6952438 2.6476288 3.9944916 2.6476288 6.3919296l0 36.157112c0 4.9924088 -4.0471497 9.039558 -9.039551 9.039558l-68.22011 0c-4.9924164 0 -9.039558 -4.0471497 -9.039558 -9.039558z" fill-rule="evenodd"/><path stroke="#000000" stroke-width="1.0" stroke-linejoin="round" stroke-linecap="butt" d="m127.926506 87.97656l0 0c0 -4.9924088 4.047142 -9.039558 9.039558 -9.039558l68.22011 0c2.3974304 0 4.696686 0.95238495 6.391922 2.6476288c1.6952515 1.6952438 2.6476288 3.9944916 2.6476288 6.3919296l0 36.157112c0 4.9924088 -4.0471497 9.039558 -9.039551 9.039558l-68.22011 0c-4.9924164 0 -9.039558 -4.0471497 -9.039558 -9.039558z" fill-rule="evenodd"/><path fill="#000000" d="m147.1366 112.97511l0 -1.421875q-1.125 1.640625 -3.0625 1.640625q-0.859375 0 -1.609375 -0.328125q-0.734375 -0.328125 -1.09375 -0.828125q-0.359375 -0.5 -0.5 -1.21875q-0.109375 -0.46875 -0.109375 -1.53125l0 -5.984375l1.640625 0l0 5.359375q0 1.28125 0.109375 1.734375q0.15625 0.640625 0.65625 1.015625q0.5 0.375 1.234375 0.375q0.734375 0 1.375 -0.375q0.65625 -0.390625 0.921875 -1.03125q0.265625 -0.65625 0.265625 -1.890625l0 -5.1875l1.640625 0l0 9.671875l-1.46875 0zm4.031967 0l0 -9.671875l1.46875 0l0 1.46875q0.5625 -1.03125 1.03125 -1.359375q0.484375 -0.328125 1.0625 -0.328125q0.828125 0 1.6875 0.53125l-0.5625 1.515625q-0.609375 -0.359375 -1.203125 -0.359375q-0.546875 0 -0.96875 0.328125q-0.421875 0.328125 -0.609375 0.890625q-0.28125 0.875 -0.28125 1.921875l0 5.0625l-1.625 0zm6.181427 0l0 -13.359375l1.640625 0l0 13.359375l-1.640625 0zm3.5354462 -2.890625l1.625 -0.25q0.125 0.96875 0.75 1.5q0.625 0.515625 1.75 0.515625q1.125 0 1.671875 -0.453125q0.546875 -0.46875 0.546875 -1.09375q0 -0.546875 -0.484375 -0.875q-0.328125 -0.21875 -1.671875 -0.546875q-1.8125 -0.46875 -2.515625 -0.796875q-0.6875 -0.328125 -1.046875 -0.90625q-0.359375 -0.59375 -0.359375 -1.3125q0 -0.640625 0.296875 -1.1875q0.296875 -0.5625 0.8125 -0.921875q0.375 -0.28125 1.03125 -0.46875q0.671875 -0.203125 1.421875 -0.203125q1.140625 0 2.0 0.328125q0.859375 0.328125 1.265625 0.890625q0.421875 0.5625 0.578125 1.5l-1.609375 0.21875q-0.109375 -0.75 -0.640625 -1.171875q-0.515625 -0.421875 -1.46875 -0.421875q-1.140625 0 -1.625 0.375q-0.46875 0.375 -0.46875 0.875q0 0.3125 0.1875 0.578125q0.203125 0.265625 0.640625 0.4375q0.234375 0.09375 1.4375 0.421875q1.75 0.453125 2.4375 0.75q0.6875 0.296875 1.078125 0.859375q0.390625 0.5625 0.390625 1.40625q0 0.828125 -0.484375 1.546875q-0.46875 0.71875 -1.375 1.125q-0.90625 0.390625 -2.046875 0.390625q-1.875 0 -2.875 -0.78125q-0.984375 -0.78125 -1.25 -2.328125zm10.4375 2.890625l0 -1.875l1.875 0l0 1.875l-1.875 0zm4.730179 3.703125l0 -13.375l1.484375 0l0 1.25q0.53125 -0.734375 1.1875 -1.09375q0.671875 -0.375 1.625 -0.375q1.234375 0 2.171875 0.640625q0.953125 0.625 1.4375 1.796875q0.484375 1.15625 0.484375 2.546875q0 1.484375 -0.53125 2.671875q-0.53125 1.1875 -1.546875 1.828125q-1.015625 0.625 -2.140625 0.625q-0.8125 0 -1.46875 -0.34375q-0.65625 -0.34375 -1.0625 -0.875l0 4.703125l-1.640625 0zm1.484375 -8.484375q0 1.859375 0.75 2.765625q0.765625 0.890625 1.828125 0.890625q1.09375 0 1.875 -0.921875q0.78125 -0.9375 0.78125 -2.875q0 -1.84375 -0.765625 -2.765625q-0.75 -0.921875 -1.8125 -0.921875q-1.046875 0 -1.859375 0.984375q-0.796875 0.96875 -0.796875 2.84375zm8.813217 8.5l-0.1875 -1.53125q0.546875 0.140625 0.9375 0.140625q0.546875 0 0.875 -0.1875q0.328125 -0.171875 0.546875 -0.5q0.15625 -0.25 0.5 -1.21875q0.046875 -0.140625 0.140625 -0.40625l-3.671875 -9.6875l1.765625 0l2.015625 5.59375q0.390625 1.078125 0.703125 2.25q0.28125 -1.125 0.671875 -2.203125l2.078125 -5.640625l1.640625 0l-3.6875 9.828125q-0.59375 1.609375 -0.921875 2.203125q-0.4375 0.8125 -1.0 1.1875q-0.5625 0.375 -1.34375 0.375q-0.484375 0 -1.0625 -0.203125z" fill-rule="nonzero"/><path fill="#000000" fill-opacity="0.0" d="m12.0236225 204.37007l132.47244 0l0 64.62993l-132.47244 0z" fill-rule="evenodd"/><path stroke="#000000" stroke-width="1.0" stroke-linejoin="round" stroke-linecap="butt" stroke-dasharray="1.0,3.0" d="m12.0236225 204.37007l132.47244 0l0 64.62993l-132.47244 0z" fill-rule="evenodd"/><path fill="#000000" d="m111.50954 230.08694q-0.859375 0.734375 -1.65625 1.078125q-0.78125 0.34375 -1.6875 0.34375q-1.34375 0 -2.171875 -0.78125q-0.8125 -0.796875 -0.8125 -2.03125q0 -0.796875 0.375 -1.421875q0.375 -0.625 0.984375 -1.0q0.609375 -0.390625 1.484375 -0.546875q0.5625 -0.109375 2.109375 -0.171875q1.5625 -0.0625 2.234375 -0.328125q0.1875 -0.671875 0.1875 -1.125q0 -0.578125 -0.421875 -0.90625q-0.5625 -0.453125 -1.671875 -0.453125q-1.03125 0 -1.703125 0.46875q-0.65625 0.453125 -0.953125 1.296875l-1.671875 -0.140625q0.515625 -1.4375 1.609375 -2.203125q1.109375 -0.765625 2.796875 -0.765625q1.796875 0 2.84375 0.859375q0.796875 0.625 0.796875 1.65625q0 0.765625 -0.21875 1.796875l-0.53125 2.40625q-0.265625 1.140625 -0.265625 1.859375q0 0.453125 0.203125 1.3125l-1.671875 0q-0.125 -0.46875 -0.1875 -1.203125zm0.609375 -3.703125q-0.34375 0.140625 -0.75 0.21875q-0.390625 0.0625 -1.3125 0.15625q-1.4375 0.125 -2.03125 0.328125q-0.59375 0.1875 -0.90625 0.625q-0.296875 0.421875 -0.296875 0.9375q0 0.6875 0.484375 1.140625q0.484375 0.4375 1.359375 0.4375q0.828125 0 1.578125 -0.421875q0.75 -0.4375 1.1875 -1.203125q0.4375 -0.78125 0.6875 -2.21875zm2.4382172 8.609375l2.796875 -13.375l1.515625 0l-0.28125 1.34375q0.84375 -0.875 1.515625 -1.21875q0.671875 -0.34375 1.421875 -0.34375q1.375 0 2.28125 1.015625q0.921875 1.0 0.921875 2.875q0 1.515625 -0.5 2.765625q-0.5 1.234375 -1.234375 2.0q-0.71875 0.75 -1.46875 1.109375q-0.75 0.34375 -1.53125 0.34375q-1.75 0 -2.703125 -1.765625l-1.09375 5.25l-1.640625 0zm3.25 -7.65625q0 1.078125 0.15625 1.5q0.234375 0.59375 0.75 0.96875q0.515625 0.359375 1.203125 0.359375q1.421875 0 2.296875 -1.59375q0.875 -1.609375 0.875 -3.28125q0 -1.21875 -0.59375 -1.890625q-0.578125 -0.671875 -1.453125 -0.671875q-0.625 0 -1.171875 0.34375q-0.53125 0.328125 -1.0 0.984375q-0.453125 0.65625 -0.765625 1.609375q-0.296875 0.953125 -0.296875 1.671875zm7.125717 7.65625l2.796875 -13.375l1.515625 0l-0.28125 1.34375q0.84375 -0.875 1.515625 -1.21875q0.671875 -0.34375 1.421875 -0.34375q1.375 0 2.28125 1.015625q0.921875 1.0 0.921875 2.875q0 1.515625 -0.5 2.765625q-0.5 1.234375 -1.234375 2.0q-0.71875 0.75 -1.46875 1.109375q-0.75 0.34375 -1.53125 0.34375q-1.75 0 -2.703125 -1.765625l-1.09375 5.25l-1.640625 0zm3.25 -7.65625q0 1.078125 0.15625 1.5q0.234375 0.59375 0.75 0.96875q0.515625 0.359375 1.203125 0.359375q1.421875 0 2.296875 -1.59375q0.875 -1.609375 0.875 -3.28125q0 -1.21875 -0.59375 -1.890625q-0.578125 -0.671875 -1.453125 -0.671875q-0.625 0 -1.171875 0.34375q-0.53125 0.328125 -1.0 0.984375q-0.453125 0.65625 -0.765625 1.609375q-0.296875 0.953125 -0.296875 1.671875z" fill-rule="nonzero"/><path fill="#000000" fill-opacity="0.0" d="m12.0236225 3.4671917l254.3937 0l0 64.62992l-254.3937 0z" fill-rule="evenodd"/><path stroke="#000000" stroke-width="1.0" stroke-linejoin="round" stroke-linecap="butt" stroke-dasharray="1.0,3.0" d="m12.0236225 3.4671917l254.3937 0l0 64.62992l-254.3937 0z" fill-rule="evenodd"/><path fill="#000000" d="m201.23375 34.090313l2.796875 -13.374998l1.515625 0l-0.28125 1.34375q0.84375 -0.875 1.515625 -1.21875q0.671875 -0.34375 1.421875 -0.34375q1.375 0 2.28125 1.015625q0.921875 1.0 0.921875 2.875q0 1.515625 -0.5 2.765625q-0.5 1.234375 -1.234375 2.0q-0.71875 0.75 -1.46875 1.109375q-0.75 0.34375 -1.53125 0.34375q-1.75 0 -2.703125 -1.765625l-1.09375 5.249998l-1.640625 0zm3.25 -7.656248q0 1.078125 0.15625 1.5q0.234375 0.59375 0.75 0.96875q0.515625 0.359375 1.203125 0.359375q1.421875 0 2.296875 -1.59375q0.875 -1.609375 0.875 -3.28125q0 -1.21875 -0.59375 -1.890625q-0.578125 -0.671875 -1.453125 -0.671875q-0.625 0 -1.171875 0.34375q-0.53125 0.328125 -1.0 0.984375q-0.453125 0.65625 -0.765625 1.609375q-0.296875 0.953125 -0.296875 1.671875zm7.938217 3.953125l2.015625 -9.671875l1.453125 0l-0.40625 1.96875q0.75 -1.109375 1.453125 -1.640625q0.71875 -0.546875 1.46875 -0.546875q0.5 0 1.21875 0.359375l-0.671875 1.53125q-0.4375 -0.3125 -0.9375 -0.3125q-0.875 0 -1.78125 0.96875q-0.90625 0.953125 -1.4375 3.46875l-0.8125 3.875l-1.5625 0zm6.493927 -3.671875q0 -2.828125 1.671875 -4.6875q1.375 -1.53125 3.609375 -1.53125q1.75 0 2.8125 1.09375q1.078125 1.09375 1.078125 2.953125q0 1.65625 -0.671875 3.09375q-0.671875 1.4375 -1.921875 2.203125q-1.25 0.765625 -2.625 0.765625q-1.125 0 -2.046875 -0.484375q-0.921875 -0.484375 -1.421875 -1.359375q-0.484375 -0.890625 -0.484375 -2.046875zm1.65625 -0.15625q0 1.359375 0.65625 2.0625q0.65625 0.703125 1.65625 0.703125q0.53125 0 1.046875 -0.203125q0.53125 -0.21875 0.96875 -0.65625q0.453125 -0.4375 0.765625 -1.0q0.3125 -0.5625 0.5 -1.203125q0.28125 -0.90625 0.28125 -1.734375q0 -1.3125 -0.65625 -2.03125q-0.65625 -0.734375 -1.65625 -0.734375q-0.78125 0 -1.421875 0.375q-0.625 0.375 -1.140625 1.09375q-0.515625 0.703125 -0.765625 1.640625q-0.234375 0.9375 -0.234375 1.6875zm10.766342 -7.65625l0.40625 -1.875l1.625 0l-0.390625 1.875l-1.640625 0zm-5.21875 15.124998l0.296875 -1.40625q0.5625 0.15625 1.0 0.15625q0.53125 0 0.84375 -0.359375q0.3125 -0.34375 0.65625 -1.9374981l2.03125 -9.765625l1.640625 0l-2.09375 10.0625q-0.390625 1.8906231 -0.890625 2.562498q-0.6875 0.921875 -1.90625 0.921875q-0.65625 0 -1.578125 -0.234375zm14.129196 -6.921873l1.609375 0.15625q-0.34375 1.1875 -1.59375 2.265625q-1.234375 1.078125 -2.96875 1.078125q-1.0625 0 -1.96875 -0.5q-0.890625 -0.5 -1.359375 -1.4375q-0.46875 -0.953125 -0.46875 -2.15625q0 -1.59375 0.734375 -3.078125q0.734375 -1.484375 1.890625 -2.203125q1.171875 -0.734375 2.53125 -0.734375q1.734375 0 2.765625 1.078125q1.03125 1.0625 1.03125 2.921875q0 0.71875 -0.125 1.46875l-7.125 0q-0.046875 0.28125 -0.046875 0.5q0 1.359375 0.625 2.078125q0.625 0.71875 1.53125 0.71875q0.84375 0 1.65625 -0.546875q0.828125 -0.5625 1.28125 -1.609375zm-4.78125 -2.40625l5.421875 0q0.015625 -0.25 0.015625 -0.359375q0 -1.234375 -0.625 -1.890625q-0.625 -0.671875 -1.59375 -0.671875q-1.0625 0 -1.9375 0.734375q-0.859375 0.71875 -1.28125 2.1875zm14.735092 2.15625l1.65625 0.171875q-0.625 1.8125 -1.765625 2.703125q-1.140625 0.875 -2.609375 0.875q-1.578125 0 -2.5625 -1.015625q-0.96875 -1.03125 -0.96875 -2.859375q0 -1.578125 0.625 -3.109375q0.640625 -1.53125 1.796875 -2.328125q1.171875 -0.796875 2.6875 -0.796875q1.546875 0 2.453125 0.875q0.921875 0.875 0.921875 2.328125l-1.625 0.109375q-0.015625 -0.921875 -0.546875 -1.4375q-0.515625 -0.515625 -1.359375 -0.515625q-1.0 0 -1.734375 0.625q-0.71875 0.625 -1.140625 1.90625q-0.40625 1.28125 -0.40625 2.46875q0 1.234375 0.546875 1.859375q0.546875 0.609375 1.34375 0.609375q0.796875 0 1.53125 -0.609375q0.734375 -0.609375 1.15625 -1.859375zm6.5000153 2.1875l-0.265625 1.359375q-0.59376526 0.140625 -1.1562653 0.140625q-0.984375 0 -1.5625 -0.46875q-0.4375 -0.375 -0.4375 -1.0q0 -0.3125 0.234375 -1.46875l1.171875 -5.625l-1.296875 0l0.265625 -1.265625l1.296875 0l0.5 -2.375l1.8906403 -1.140625l-0.734375 3.515625l1.625 0l-0.28125 1.265625l-1.609375 0l-1.1250153 5.359375q-0.203125 1.015625 -0.203125 1.21875q0 0.28125 0.15625 0.4375q0.171875 0.15625 0.5625 0.15625q0.54689026 0 0.96876526 -0.109375z" fill-rule="nonzero"/><path fill="#ff9900" d="m4.8083987 334.59973l0 0c0 15.857605 12.611309 29.70694 30.661419 33.671326l0 -5.1102295l10.22047 11.324738l-10.22047 9.116211l0 -5.11026l0 0c-18.05011 -3.964386 -30.661419 -17.81369 -30.661419 -33.671295z" fill-rule="evenodd"/><path fill="#cb7a00" d="m45.69029 310.04462l0 0c-20.258207 0 -37.46116 12.620087 -40.43808 29.665344l0 0c-1.7473953 -10.0052185 1.7130051 -20.161835 9.479002 -27.821777c7.765996 -7.6599426 19.067902 -12.064026 30.959076 -12.064026z" fill-rule="evenodd"/><path fill="#000000" fill-opacity="0.0" d="m4.8083987 334.59973l0 0c0 15.857605 12.611309 29.70694 30.661419 33.671326l0 -5.1102295l10.22047 11.324738l-10.22047 9.116211l0 -5.11026l0 0c-18.05011 -3.964386 -30.661419 -17.81369 -30.661419 -33.671295l0 -10.2204895l0 0c0 -19.206024 18.303446 -34.775574 40.88189 -34.775574l0 10.220459l0 0c-20.258207 0 -37.46116 12.620087 -40.43808 29.665344" fill-rule="evenodd"/><path stroke="#000000" stroke-width="1.0" stroke-linejoin="round" stroke-linecap="butt" d="m4.8083987 334.59973l0 0c0 15.857605 12.611309 29.70694 30.661419 33.671326l0 -5.1102295l10.22047 11.324738l-10.22047 9.116211l0 -5.11026l0 0c-18.05011 -3.964386 -30.661419 -17.81369 -30.661419 -33.671295l0 -10.2204895l0 0c0 -19.206024 18.303446 -34.775574 40.88189 -34.775574l0 10.220459l0 0c-20.258207 0 -37.46116 12.620087 -40.43808 29.665344" fill-rule="evenodd"/><path fill="#ff9900" d="m65.11024 522.31494l37.055115 0l0 -32.31494l74.11024 0l0 32.31494l37.055115 0l-74.11023 32.315002z" fill-rule="evenodd"/><path stroke="#000000" stroke-width="1.0" stroke-linejoin="round" stroke-linecap="butt" d="m65.11024 522.31494l37.055115 0l0 -32.31494l74.11024 0l0 32.31494l37.055115 0l-74.11023 32.315002z" fill-rule="evenodd"/></g></svg>